@startuml clippy
skinparam linetype ortho
class Tenant {
    name
    invoiceAddress
    ...
}
note left: There is only one Tenant\nconnected to the root OrgUnit
class OrgUnit {
    name
    description
    ...
}
class OrgUnitType {
    name
    description
    icon
}
class Location {
    name
    street
    zip
    city
    country
    ...
}
class User {
    name
    email
    phone
    address
    bankAccountNumber
    ...
}
class Shift {
    start
    end
}
class TimeEntry {
    start
    end
    status {started, finished, validated, rejected}
    note ?
}
note right: How do we manage\nstatus and validation?
class Membership {
}
class Role {
    name
    description
}
class Permission {
    key
    description
}
class MembershipRequest {
    status {pending, accepted, rejected}
    reviewedBy
    reviewedAt
    rejectionReason
}
class ShiftAssignment {
    status {invited, accepted, rejected}
}
class Review {
    rating
    review
}
class VolunteeringSession {
    status {started, finished, validated, rejected}
    note ?
}
note right: Is this needed?
class ValidationAction {
    note
    moderator
    timestamp
}
note right: How is reject => update\nof a TimeEntry working?

class DossierDefinition {
    name
    description
}
class DossierEntryDefinition {
    type {document, check, date, ...}
    name
    description
}
class Dossier {
    status {draft, submitted, approved, rejected}
    submittedAt
    reviewedAt
    reviewedBy
}
class DossierEntry {
    value: text/JSON
    status {draft, submitted, approved, rejected}
    submittedAt
    reviewedAt
    reviewedBy
}
class Document {
    name
    mimeType
    storageKey
    uploadedAt
}

Tenant -down- "root\n1" OrgUnit
OrgUnit "*" -up- "1" OrgUnitType
OrgUnit "*\nchild" o-- "1\nparent" OrgUnit
OrgUnit "0..1" -- "*" Shift
OrgUnit "1" -right- "*" Membership
Membership "*" -down- "1" User

OrgUnit "1" -down- "*" MembershipRequest
MembershipRequest "*" -right- "1" User

Location "0..1" -up- "*" OrgUnit
Location "0..1" -right- "*" Shift

Role "*" -right- "*" Permission

Role "*" -- "*" Membership

OrgUnit "1" -left- "*" DossierDefinition
DossierDefinition -left- "*" DossierEntryDefinition

User "1" -right- "*" Document
DossierEntry "*" -down- "0..1" Document
Membership "1" -right- "*" Dossier
Dossier -right- "*" DossierEntry
MembershipRequest "1" -left- "*" Dossier

Dossier "*" -left- "1" DossierDefinition
DossierEntry "*" -left- "1" DossierEntryDefinition

ShiftAssignment "*" -up- "1" User
Shift "1" -up- "*" ShiftAssignment
Review "*" -up- "1" User
Shift "1" -up- "*" Review
TimeEntry "*" -up- "1" User
TimeEntry "*" -- "1" Shift
VolunteeringSession "*" -up- "1" User
VolunteeringSession "*" -left- "1" Shift
VolunteeringSession "1" -- "*" TimeEntry
TimeEntry "1" -- "0..1" ValidationAction

@enduml